                                                                        S      1
,,,10HCinturón1,22HAutodesk Inventor 2026,7Hunknown,32,38,7,99,15,,1., G      1
2,2HMM,1,0.08,15H20250909.140808,0.01,10000.,20HLaboratorio_sensores,,  G      2
11,0,15H20250909.000000;                                                G      3
     406       1                       2                        00000000D      1
     406                       1       3                               0D      2
     116       2                                                00010000D      3
     116       0    -239       1       0                               0D      4
     116       3                                                00010000D      5
     116       0               1       0                               0D      6
     110       4                       2                        00000000D      7
     110       0    -241       1       0                               0D      8
     110       5                       2                        00000000D      9
     110       0               1       0                               0D     10
     110       6                       2                        00000000D     11
     110       0               1       0                               0D     12
     110       7                       2                        00000000D     13
     110       0    -241       1       0                               0D     14
     110       8                       2                        00000000D     15
     110       0    -241       1       0                               0D     16
     110       9                       2                        00000000D     17
     110       0               2       0                               0D     18
     110      11                       2                        00000000D     19
     110       0               2       0                               0D     20
     110      13                       2                        00000000D     21
     110       0    -241       1       0                               0D     22
     124      14                                                00000000D     23
     124                       1       0                               0D     24
     124      15                                                00000000D     25
     124                       2       0                               0D     26
     124      17                                                00000000D     27
     124                       1       0                               0D     28
     124      18                                                00000000D     29
     124                       1       0                               0D     30
     124      19                                                00000000D     31
     124                       1       0                               0D     32
     124      20                                                00000000D     33
     124                       1       0                               0D     34
     124      21                                                00000000D     35
     124                       1       0                               0D     36
     124      22                                                00000000D     37
     124                       2       0                               0D     38
     124      24                                                00000000D     39
     124                       2       0                               0D     40
     124      26                                                00000000D     41
     124                       2       0                               0D     42
     104      28                       2              23        00000000D     43
     104       0    -241       2       0                               0D     44
     104      30                       2              25        00000000D     45
     104       0               2       0                               0D     46
     104      32                       2              27        00000000D     47
     104       0               2       0                               0D     48
     104      34                       2              29        00000000D     49
     104       0               2       0                               0D     50
     104      36                       2              31        00000000D     51
     104       0               2       0                               0D     52
     104      38                       2              33        00000000D     53
     104       0               3       0                               0D     54
     104      41                       2              35        00000000D     55
     104       0               3       0                               0D     56
     104      44                       2              37        00000000D     57
     104       0               2       0                               0D     58
     104      46                       2              39        00000000D     59
     104       0               2       0                               0D     60
     104      48                       2              41        00000000D     61
     104       0               2       0                               0D     62
     186      50                                                00000000D     63
     186            -237       1       0                               0D     64
     186      51                                                00000000D     65
     186            -237       1       0                               0D     66
     186      52                                                00000000D     67
     186            -237       1       0                               0D     68
     514      53                                                00010000D     69
     514                       1       1                               0D     70
     514      54                                                00010000D     71
     514                       1       1                               0D     72
     514      55                                                00010000D     73
     514                       1       1                               0D     74
     510      56                                                00010000D     75
     510            -237       1       1                               0D     76
     510      57                                                00010000D     77
     510            -237       1       1                               0D     78
     510      58                                                00010000D     79
     510            -237       1       1                               0D     80
     510      59                                                00010000D     81
     510            -237       1       1                               0D     82
     510      60                                                00010000D     83
     510            -237       1       1                               0D     84
     510      61                                                00010000D     85
     510            -237       1       1                               0D     86
     510      62                                                00010000D     87
     510            -237       1       1                               0D     88
     510      63                                                00010000D     89
     510            -237       1       1                               0D     90
     510      64                                                00010000D     91
     510            -237       1       1                               0D     92
     510      65                                                00010000D     93
     510            -237       1       1                               0D     94
     510      66                                                00010000D     95
     510            -237       1       1                               0D     96
     510      67                                                00010000D     97
     510            -237       1       1                               0D     98
     510      68                                                00010000D     99
     510            -237       1       1                               0D    100
     510      69                                                00010000D    101
     510            -237       1       1                               0D    102
     510      70                                                00010000D    103
     510            -237       1       1                               0D    104
     508      71                                                00010000D    105
     508                       1       1                               0D    106
     508      72                                                00010000D    107
     508                       1       1                               0D    108
     508      73                                                00010000D    109
     508                       1       1                               0D    110
     508      74                                                00010000D    111
     508                       1       1                               0D    112
     508      75                                                00010000D    113
     508                       1       1                               0D    114
     508      76                                                00010000D    115
     508                       1       1                               0D    116
     508      77                                                00010000D    117
     508                       1       1                               0D    118
     508      78                                                00010000D    119
     508                       1       1                               0D    120
     508      79                                                00010000D    121
     508                       1       1                               0D    122
     508      80                                                00010000D    123
     508                       1       1                               0D    124
     508      81                                                00010000D    125
     508                       1       1                               0D    126
     508      82                                                00010000D    127
     508                       1       1                               0D    128
     508      83                                                00010000D    129
     508                       1       1                               0D    130
     508      84                                                00010000D    131
     508                       1       1                               0D    132
     508      85                                                00010000D    133
     508                       1       1                               0D    134
     126      86                                                00010000D    135
     126       0               8       0                               0D    136
     126      94                                                00010000D    137
     126       0               3       0                               0D    138
     126      97                                                00010000D    139
     126       0               8       0                               0D    140
     126     105                                                00010000D    141
     126       0               3       0                               0D    142
     126     108                                                00010000D    143
     126       0               3       0                               0D    144
     126     111                                                00010000D    145
     126       0               3       0                               0D    146
     126     114                                                00010000D    147
     126       0               2       0                               0D    148
     126     116                                                00010000D    149
     126       0               8       0                               0D    150
     126     124                                                00010000D    151
     126       0               2       0                               0D    152
     126     126                                                00010000D    153
     126       0               2       0                               0D    154
     126     128                                                00010000D    155
     126       0               3       0                               0D    156
     126     131                                                00010000D    157
     126       0               8       0                               0D    158
     126     139                                                00010000D    159
     126       0               3       0                               0D    160
     126     142                                                00010000D    161
     126       0               5       0                               0D    162
     126     147                                                00010000D    163
     126       0               3       0                               0D    164
     126     150                                                00010000D    165
     126       0               6       0                               0D    166
     126     156                                                00010000D    167
     126       0               3       0                               0D    168
     126     159                                                00010000D    169
     126       0               5       0                               0D    170
     126     164                                                00010000D    171
     126       0               3       0                               0D    172
     126     167                                                00010000D    173
     126       0               3       0                               0D    174
     126     170                                                00010000D    175
     126       0               3       0                               0D    176
     126     173                                                00010000D    177
     126       0               6       0                               0D    178
     126     179                                                00010000D    179
     126       0               3       0                               0D    180
     126     182                                                00010000D    181
     126       0               3       0                               0D    182
     126     185                                                00010000D    183
     126       0              14       0                               0D    184
     126     199                                                00010000D    185
     126       0               8       0                               0D    186
     126     207                                                00010000D    187
     126       0              15       0                               0D    188
     128     222                                                00010000D    189
     128       0    -237       7       0                               0D    190
     128     229                                                00010000D    191
     128       0    -237       5       0                               0D    192
     128     234                                                00010000D    193
     128       0    -237      13       0                               0D    194
     128     247                                                00010000D    195
     128       0    -237       4       0                               0D    196
     128     251                                                00010000D    197
     128       0    -237      10       0                               0D    198
     128     261                                                00010000D    199
     128       0    -237       7       0                               0D    200
     128     268                                                00010000D    201
     128       0    -237       7       0                               0D    202
     128     275                                                00010000D    203
     128       0    -237      10       0                               0D    204
     128     285                                                00010000D    205
     128       0    -237       6       0                               0D    206
     128     291                                                00010000D    207
     128       0    -237       9       0                               0D    208
     128     300                                                00010000D    209
     128       0    -237       6       0                               0D    210
     128     306                                                00010000D    211
     128       0    -237       7       0                               0D    212
     128     313                                                00010000D    213
     128       0    -237      54       0                               0D    214
     128     367                                                00010000D    215
     128       0    -237       9       0                               0D    216
     128     376                                                00010000D    217
     128       0    -237       9       0                               0D    218
     502     385                                                00010000D    219
     502                       3       1                               0D    220
     502     388                                                00010000D    221
     502                       6       1                               0D    222
     502     394                                                00010000D    223
     502                       2       1                               0D    224
     504     396                                                00010001D    225
     504                       4       1                               0D    226
     504     400                                                00010001D    227
     504                       4       1                               0D    228
     504     404                                                00010001D    229
     504                       1       1                               0D    230
     406     405                                                00000000D    231
     406                       1      15                               0D    232
     406     406                                                00000000D    233
     406                       1      15                               0D    234
     406     407                                                00000000D    235
     406                       1      15                               0D    236
     314     408                                                00000200D    237
     314                       1       0                               0D    238
     314     409                                                00000200D    239
     314                       1       0                               0D    240
     314     410                                                00000200D    241
     314                       1       0                               0D    242
406,2,0,7HBoceto1;                                                     1P      1
116,0.,0.,0.,0;                                                        3P      2
116,1.35393918299087D-12,0.,-200.,0;                                   5P      3
110,-100.,0.,0.,-103.,0.,9.18485099360511D-16;                         7P      4
110,0.,0.,198.,0.,0.,203.;                                             9P      5
110,0.,0.,-198.,3.38484795747718D-12,0.,-203.;                        11P      6
110,-103.,0.,9.18485099360511D-16,-102.,0.,1.2491397351303D-14;       13P      7
110,-98.5,0.,8.7835710958273D-16,-95.5,0.,1.16953769318572D-14;       15P      8
110,-97.7116896653909,0.,24.9999999999997,-94.715945382246,0.,        17P      9
24.9999999999995;                                                     17P     10
110,-97.7116896653902,0.,-25.0000000000002,-94.7159453822459,0.,      19P     11
-25.0000000000004;                                                    19P     12
110,-98.5,0.,8.7835710958273D-16,-97.5,0.,1.19403062916867D-14;       21P     13
124,0.,-1.,0.,0.,0.,0.,1.,0.,-1.,0.,0.,0.;                            23P     14
124,1.67449804396848D-14,-1.,0.,0.,0.,0.,1.,0.,-1.,                   25P     15
-1.67449804396848D-14,0.,0.;                                          25P     16
124,0.,-1.,0.,0.,0.,0.,1.,0.,-1.,0.,0.,0.;                            27P     17
124,0.,-1.,0.,0.,0.,0.,1.,0.,-1.,0.,0.,0.;                            29P     18
124,0.,-1.,0.,0.,0.,0.,1.,0.,-1.,0.,0.,0.;                            31P     19
124,0.,-1.,0.,0.,0.,0.,1.,0.,-1.,0.,0.,0.;                            33P     20
124,0.,-1.,0.,0.,0.,0.,1.,0.,-1.,0.,0.,0.;                            35P     21
124,1.67449804396848D-14,-1.,0.,0.,0.,0.,1.,0.,-1.,                   37P     22
-1.67449804396848D-14,0.,0.;                                          37P     23
124,1.67449804396848D-14,-1.,0.,0.,0.,0.,1.,0.,-1.,                   39P     24
-1.67449804396848D-14,0.,0.;                                          39P     25
124,1.67449804396848D-14,-1.,0.,0.,0.,0.,1.,0.,-1.,                   41P     26
-1.67449804396848D-14,0.,0.;                                          41P     27
104,10000.,0.,40000.,0.,0.,-400000000.,0.,-200.,                      43P     28
1.22464679914735D-14,25.0000000000001,99.2156741649221;               43P     29
104,9702.25,0.,39204.,0.,0.,-380367009.,0.,-198.,                     45P     30
-1.20627709716012D-14,-198.,1.2062770971602D-14;                      45P     31
104,10609.,0.,81372.8881587959,0.,0.,-863284970.476666,0.,25.,        47P     32
102.603681953665,-25.,102.603681953665;                               47P     33
104,10000.,0.,40000.,0.,0.,-400000000.,0.,-25.,99.2156741649221,      49P     34
-200.,1.22464679914735D-14;                                           49P     35
104,10000.,0.,40000.,0.,0.,-400000000.,0.,25.,99.2156741649221,       51P     36
-25.,99.2156741649221;                                                51P     37
104,10403.9999999954,0.,80803.3694889211,0.,0.,                       53P     38
-840678256.162365,0.,25.0000000007057,101.604758110535,               53P     39
-24.9999999999946,101.604758110557;                                   53P     40
104,9120.25,0.,38220.25,0.,0.,-348578235.0625,0.,                     55P     41
25.0000000000004,94.7159453822459,-24.9999999999995,                  55P     42
94.715945382246;                                                      55P     43
104,9506.25,0.,38809.,0.,0.,-368928056.25,0.,24.9999999999987,        57P     44
96.7117184436336,-25.0000000000013,96.7117184436335;                  57P     45
104,9506.25,0.,38809.,0.,0.,-368928056.25,0.,25.0000000000107,        59P     46
-96.7117184436329,197.,3.44001522424711D-12;                          59P     47
104,9506.25,0.,38809.,0.,0.,-368928056.25,0.,-24.9999999999858,       61P     48
-96.7117184436344,25.0000000000107,-96.7117184436329;                 61P     49
186,69,1,0,0,1,231;                                                   63P     50
186,71,1,0,0,1,233;                                                   65P     51
186,73,1,0,0,1,235;                                                   67P     52
514,6,75,1,77,1,79,1,81,1,83,1,85,1;                                  69P     53
514,6,87,1,89,1,91,1,93,1,95,1,97,1;                                  71P     54
514,3,99,1,101,1,103,1;                                               73P     55
510,189,1,1,105;                                                      75P     56
510,191,1,1,107;                                                      77P     57
510,193,1,1,109;                                                      79P     58
510,195,1,1,111;                                                      81P     59
510,197,1,1,113;                                                      83P     60
510,199,1,1,115;                                                      85P     61
510,201,1,1,117;                                                      87P     62
510,203,1,1,119;                                                      89P     63
510,205,1,1,121;                                                      91P     64
510,207,1,1,123;                                                      93P     65
510,209,1,1,125;                                                      95P     66
510,211,1,1,127;                                                      97P     67
510,213,1,1,129;                                                      99P     68
510,215,1,1,131;                                                     101P     69
510,217,1,1,133;                                                     103P     70
508,4,0,225,1,1,0,0,225,2,1,0,0,225,3,1,0,0,225,4,1,0;               105P     71
508,4,0,225,5,0,0,0,225,6,0,0,0,225,7,0,0,0,225,2,0,0;               107P     72
508,4,0,225,7,1,0,0,225,8,0,0,0,225,9,0,0,0,225,3,0,0;               109P     73
508,4,0,225,9,1,0,0,225,10,0,0,0,225,11,0,0,0,225,4,0,0;             111P     74
508,4,0,225,11,1,0,0,225,12,0,0,0,225,5,1,0,0,225,1,0,0;             113P     75
508,4,0,225,12,1,0,0,225,10,1,0,0,225,8,1,0,0,225,6,1,0;             115P     76
508,4,0,227,1,1,0,0,227,2,1,0,0,227,3,1,0,0,227,4,1,0;               117P     77
508,4,0,227,5,0,0,0,227,6,0,0,0,227,7,0,0,0,227,2,0,0;               119P     78
508,4,0,227,7,1,0,0,227,8,0,0,0,227,9,0,0,0,227,3,0,0;               121P     79
508,4,0,227,9,1,0,0,227,10,0,0,0,227,11,0,0,0,227,4,0,0;             123P     80
508,4,0,227,11,1,0,0,227,12,0,0,0,227,5,1,0,0,227,1,0,0;             125P     81
508,4,0,227,12,1,0,0,227,10,1,0,0,227,8,1,0,0,227,6,1,0;             127P     82
508,4,0,229,1,0,0,0,229,2,1,0,0,229,3,0,0,0,229,2,0,0;               129P     83
508,1,0,229,3,1,0;                                                   131P     84
508,1,0,229,1,1,0;                                                   133P     85
126,4,2,0,0,0,0,-3.14159265358979,-3.14159265358979,                 135P     86
-3.14159265358979,-1.57079632679489,-1.57079632679489,               135P     87
1.35393918299087D-14,1.35393918299087D-14,1.35393918299087D-14,      135P     88
1.,0.707106781186545,1.,0.707106781186545,1.,                        135P     89
-1.22464679914735D-14,-7.5,200.,-100.000000000001,-7.5,200.,         135P     90
-100.,-7.5,-1.34451409754166D-12,-99.9999999999993,-7.5,             135P     91
-200.000000000003,1.35393918299087D-12,-7.5,-200.,                   135P     92
-3.14159265358979,1.35393918299087D-14,0.,0.,0.;                     135P     93
126,1,1,0,0,1,0,-0.199999999999999,-0.199999999999999,0.,0.,1.,      137P     94
1.,1.35393918299087D-12,-7.5,-200.,0.,-7.5,-198.,                    137P     95
-0.199999999999999,0.,0.,0.,0.;                                      137P     96
126,4,2,0,0,0,0,-3.14159265358976,-3.14159265358976,                 139P     97
-3.14159265358976,-1.57079632679486,-1.57079632679486,               139P     98
3.36599606807878D-14,3.36599606807878D-14,3.36599606807878D-14,      139P     99
1.,0.707106781186548,1.,0.707106781186547,1.,                        139P    100
2.27343183186599D-14,-7.5,-198.,-98.5,-7.5,-197.999999999995,        139P    101
-98.5,-7.5,5.00143302805119D-12,-98.5,-7.5,198.000000000005,         139P    102
-5.04870979341448D-28,-7.5,198.,-3.14159265358976,                   139P    103
3.36599606807878D-14,0.,0.,0.;                                       139P    104
126,1,1,0,0,1,0,-0.5,-0.5,-0.300000000000001,-0.300000000000001,     141P    105
1.,1.,0.,-7.5,198.,0.,-7.5,200.,-0.5,-0.300000000000001,0.,0.,       141P    106
0.;                                                                  141P    107
126,1,1,0,0,1,0,-0.75,-0.75,0.75,0.75,1.,1.,                         143P    108
1.35393918299087D-12,7.5,-200.,1.35393918299087D-12,-7.5,-200.,      143P    109
-0.75,0.75,0.,0.,0.;                                                 143P    110
126,1,1,0,0,1,0,0.,0.,0.199999999999999,0.199999999999999,1.,1.,     145P    111
0.,7.5,-198.,1.35393918299087D-12,7.5,-200.,0.,                      145P    112
0.199999999999999,0.,0.,0.;                                          145P    113
126,1,1,0,0,1,0,-0.75,-0.75,0.75,0.75,1.,1.,0.,-7.5,-198.,0.,        147P    114
7.5,-198.,-0.75,0.75,0.,0.,0.;                                       147P    115
126,4,2,0,0,0,0,-3.36599606807878D-14,-3.36599606807878D-14,         149P    116
-3.36599606807878D-14,1.57079632679486,1.57079632679486,             149P    117
3.14159265358976,3.14159265358976,3.14159265358976,1.,               149P    118
0.707106781186547,1.,0.707106781186548,1.,-5.04870979341448D-28,     149P    119
7.5,198.,-98.5,7.5,198.000000000005,-98.5,7.5,                       149P    120
5.00143302805119D-12,-98.5,7.5,-197.999999999995,                    149P    121
2.27343183186599D-14,7.5,-198.,-3.36599606807878D-14,                149P    122
3.14159265358976,0.,0.,0.;                                           149P    123
126,1,1,0,0,1,0,-0.75,-0.75,0.75,0.75,1.,1.,0.,-7.5,198.,0.,7.5,     151P    124
198.,-0.75,0.75,0.,0.,0.;                                            151P    125
126,1,1,0,0,1,0,0.300000000000001,0.300000000000001,0.5,0.5,1.,      153P    126
1.,0.,7.5,200.,0.,7.5,198.,0.300000000000001,0.5,0.,0.,0.;           153P    127
126,1,1,0,0,1,0,-0.75,-0.75,0.75,0.75,1.,1.,                         155P    128
-1.22464679914735D-14,-7.5,200.,-1.22464679914735D-14,7.5,200.,      155P    129
-0.75,0.75,0.,0.,0.;                                                 155P    130
126,4,2,0,0,0,0,-1.35393918299087D-14,-1.35393918299087D-14,         157P    131
-1.35393918299087D-14,1.57079632679489,1.57079632679489,             157P    132
3.14159265358979,3.14159265358979,3.14159265358979,1.,               157P    133
0.707106781186545,1.,0.707106781186545,1.,1.35393918299087D-12,      157P    134
7.5,-200.,-99.9999999999993,7.5,-200.000000000003,-100.,7.5,         157P    135
-1.34451409754166D-12,-100.000000000001,7.5,200.,                    157P    136
-1.22464679914735D-14,7.5,200.,-1.35393918299087D-14,                157P    137
3.14159265358979,0.,0.,0.;                                           157P    138
126,1,1,0,0,1,0,-0.299574428314486,-0.299574428314486,0.,0.,1.,      159P    139
1.,-94.715945382246,-5.,24.9999999999995,-97.7116896653909,-5.,      159P    140
24.9999999999997,-0.299574428314486,0.,0.,0.,0.;                     159P    141
126,2,2,0,0,0,0,-1.697396867997,-1.697396867997,-1.697396867997,     161P    142
-1.4441957855928,-1.4441957855928,-1.4441957855928,1.,               161P    143
0.991996849394836,1.,-97.7116896653909,-5.,24.9999999999996,         161P    144
-99.2946701999007,-5.,-2.04281036531029D-13,-97.7116896653902,       161P    145
-5.,-25.0000000000002,-1.697396867997,-1.4441957855928,0.,0.,0.;     161P    146
126,1,1,0,0,1,0,-0.299574428314422,-0.299574428314422,0.,0.,1.,      163P    147
1.,-97.7116896653902,-5.,-25.0000000000002,-94.7159453822459,        163P    148
-5.,-25.0000000000004,-0.299574428314422,0.,0.,0.,0.;                163P    149
126,2,2,0,0,0,0,-1.69902467516766,-1.69902467516766,                 165P    150
-1.69902467516766,-1.44256797842214,-1.44256797842214,               165P    151
-1.44256797842214,1.,0.991790004002561,1.,-94.7159453822459,-5.,     165P    152
-25.0000000000003,-96.2905449889491,-5.,-6.03961325396085D-13,       165P    153
-94.715945382246,-5.,24.9999999999994,-1.69902467516766,             165P    154
-1.44256797842214,0.,0.,0.;                                          165P    155
126,1,1,0,0,1,0,-0.5,-0.5,0.5,0.5,1.,1.,-97.7116896653909,5.,        167P    156
24.9999999999997,-97.7116896653909,-5.,24.9999999999997,-0.5,        167P    157
0.5,0.,0.,0.;                                                        167P    158
126,2,2,0,0,0,0,1.4441957855928,1.4441957855928,1.4441957855928,     169P    159
1.697396867997,1.697396867997,1.697396867997,1.,                     169P    160
0.991996849394836,1.,-97.7116896653902,5.,-25.0000000000002,         169P    161
-99.2946701999007,5.,-2.04281036531029D-13,-97.7116896653909,5.,     169P    162
24.9999999999996,1.4441957855928,1.697396867997,0.,0.,0.;            169P    163
126,1,1,0,0,1,0,-0.5,-0.5,0.5,0.5,1.,1.,-97.7116896653902,-5.,       171P    164
-25.0000000000002,-97.7116896653902,5.,-25.0000000000002,-0.5,       171P    165
0.5,0.,0.,0.;                                                        171P    166
126,1,1,0,0,1,0,0.,0.,0.299574428314422,0.299574428314422,1.,1.,     173P    167
-94.7159453822459,5.,-25.0000000000004,-97.7116896653902,5.,         173P    168
-25.0000000000002,0.,0.299574428314422,0.,0.,0.;                     173P    169
126,1,1,0,0,1,0,-0.5,-0.5,0.5,0.5,1.,1.,-94.7159453822459,-5.,       175P    170
-25.0000000000004,-94.7159453822459,5.,-25.0000000000004,-0.5,       175P    171
0.5,0.,0.,0.;                                                        175P    172
126,2,2,0,0,0,0,1.44256797842214,1.44256797842214,                   177P    173
1.44256797842214,1.69902467516766,1.69902467516766,                  177P    174
1.69902467516766,1.,0.991790004002561,1.,-94.715945382246,5.,        177P    175
24.9999999999994,-96.2905449889491,5.,-6.03961325396085D-13,         177P    176
-94.7159453822459,5.,-25.0000000000003,1.44256797842214,             177P    177
1.69902467516766,0.,0.,0.;                                           177P    178
126,1,1,0,0,1,0,-0.5,-0.5,0.5,0.5,1.,1.,-94.715945382246,-5.,        179P    179
24.9999999999995,-94.715945382246,5.,24.9999999999995,-0.5,0.5,      179P    180
0.,0.,0.;                                                            179P    181
126,1,1,0,0,1,0,0.,0.,0.299574428314486,0.299574428314486,1.,1.,     181P    182
-97.7116896653909,5.,24.9999999999997,-94.715945382246,5.,           181P    183
24.9999999999995,0.,0.299574428314486,0.,0.,0.;                      181P    184
126,8,2,0,1,0,0,0.,0.,0.,1.5707963267949,1.5707963267949,            183P    185
3.14159265358979,3.14159265358979,4.71238898038469,                  183P    186
4.71238898038469,6.28318530717959,6.28318530717959,                  183P    187
6.28318530717959,1.,0.70710678118635,1.,0.70710678118635,1.,         183P    188
0.70710678118635,1.,0.70710678118635,1.,-96.6492184436339,0.,        183P    189
24.9999999999996,-96.6492184436339,0.0625000000000001,               183P    190
24.9999999999996,-96.7117184436339,0.0625000000000001,               183P    191
24.9999999999996,-96.7742184436339,0.0625000000000001,               183P    192
24.9999999999996,-96.7742184436339,7.65404249467097D-18,             183P    193
24.9999999999996,-96.7742184436339,-0.0625,24.9999999999996,         183P    194
-96.7117184436339,-0.0625000000000001,24.9999999999996,              183P    195
-96.6492184436339,-0.0625000000000001,24.9999999999996,              183P    196
-96.6492184436339,-1.53080849893419D-17,24.9999999999996,0.,         183P    197
6.28318530717959,0.,0.,0.;                                           183P    198
126,3,3,0,0,1,0,1.44354969050142,1.44354969050142,                   185P    199
1.44354969050142,1.44354969050142,1.69804299246575,                  185P    200
1.69804299246575,1.69804299246575,1.69804299246575,1.,1.,1.,1.,      185P    201
-96.649127818311,-2.79879450458017D-5,24.999994260365,               185P    202
-97.6987509661039,-2.79879450458017D-5,8.42603911895268,             185P    203
-97.6989154205073,-2.79879450458017D-5,-8.41812887774396,            185P    204
-96.6496273505434,-2.79879450458017D-5,-24.9921051890848,            185P    205
1.44354969050142,1.69804299246575,0.,0.,0.;                          185P    206
126,8,2,0,1,0,0,-6.28318530717959,-6.28318530717959,                 187P    207
-6.28318530717959,-4.71238898038469,-4.71238898038469,               187P    208
-3.14159265358979,-3.14159265358979,-1.5707963267949,                187P    209
-1.5707963267949,0.,0.,0.,1.,0.707106781186349,1.,                   187P    210
0.70710678118635,1.,0.707106781186349,1.,0.707106781186349,1.,       187P    211
-96.6497176126548,-1.53080849893419D-17,-24.9921166658082,           187P    212
-96.6497176126548,-0.0625000000000001,-24.9921166658082,             187P    213
-96.7117184436332,-0.0625000000000001,-25.0000000000002,             187P    214
-96.7737192746116,-0.0625000000000001,-25.0078833341923,             187P    215
-96.7737192746116,7.65404249467097D-18,-25.0078833341923,            187P    216
-96.7737192746116,0.0625000000000001,-25.0078833341923,              187P    217
-96.7117184436332,0.0625000000000001,-25.0000000000002,              187P    218
-96.6497176126548,0.0625000000000001,-24.9921166658082,              187P    219
-96.6497176126548,0.,-24.9921166658082,-6.28318530717959,0.,0.,      187P    220
0.,0.;                                                               187P    221
128,1,1,1,1,0,0,1,0,0,-20.0010000000003,-20.0010000000003,           189P    222
20.001,20.001,-5.00100000000014,-5.00100000000014,                   189P    223
5.00100000000007,5.00100000000007,1.,1.,1.,1.,-100.010000000001,     189P    224
-7.5,200.01,-100.010000000001,-7.5,-200.010000000003,                189P    225
0.0100000000013623,-7.5,200.01,0.0100000000013534,-7.5,              189P    226
-200.010000000003,-20.0010000000003,20.001,-5.00100000000014,        189P    227
5.00100000000007;                                                    189P    228
128,1,1,1,1,0,0,1,0,0,-0.001,-0.001,0.200999999999999,               191P    229
0.200999999999999,-0.751,-0.751,0.751,0.751,1.,1.,1.,1.,             191P    230
-6.76969591495436D-15,-7.51,-197.99,1.36070887890582D-12,-7.51,      191P    231
-200.01,-6.76969591495436D-15,7.51,-197.99,1.36070887890582D-12,     191P    232
7.51,-200.01,-0.001,0.200999999999999,-0.751,0.751;                  191P    233
128,1,4,1,2,0,0,0,0,0,-0.0378787878787879,-0.0378787878787879,       193P    234
0.0378787878787879,0.0378787878787879,-3.14159265358976,             193P    235
-3.14159265358976,-3.14159265358976,-1.57079632679486,               193P    236
-1.57079632679486,3.36599606807878D-14,3.36599606807878D-14,         193P    237
3.36599606807878D-14,1.,1.,0.707106781186547,0.707106781186547,      193P    238
1.,1.,0.707106781186547,0.707106781186547,1.,1.,                     193P    239
3.3155061270576D-12,-7.5,-198.,3.3155061270576D-12,7.5,-198.,        193P    240
-98.4999999999967,-7.5,-198.000000000002,-98.4999999999967,7.5,      193P    241
-198.000000000002,-98.5,-7.5,-1.64938057330896D-12,-98.5,7.5,        193P    242
-1.64938057330896D-12,-98.5000000000033,-7.5,197.999999999998,       193P    243
-98.5000000000033,7.5,197.999999999998,-3.3155061270576D-12,         193P    244
-7.5,198.,-3.3155061270576D-12,7.5,198.,-0.0378787878787879,         193P    245
0.0378787878787879,-3.14159265358976,3.36599606807878D-14;           193P    246
128,1,1,1,1,0,0,1,0,0,-0.001,-0.001,0.200999999999999,               195P    247
0.200999999999999,-0.751,-0.751,0.751,0.751,1.,1.,1.,1.,0.,          195P    248
-7.51,200.01,0.,-7.51,197.99,0.,7.51,200.01,0.,7.51,197.99,          195P    249
-0.001,0.200999999999999,-0.751,0.751;                               195P    250
128,1,4,1,2,0,0,0,0,0,-0.0375,-0.0375,0.0375,0.0375,                 197P    251
-1.35676056553313D-14,-1.35676056553313D-14,                         197P    252
-1.35676056553313D-14,1.57079632679489,1.57079632679489,             197P    253
3.14159265358979,3.14159265358979,3.14159265358979,1.,1.,            197P    254
0.707106781186545,0.707106781186545,1.,1.,0.707106781186545,         197P    255
0.707106781186545,1.,1.,0.,7.5,-200.,0.,-7.5,-200.,-100.,7.5,        197P    256
-200.000000000001,-100.,-7.5,-200.000000000001,-100.,7.5,0.,         197P    257
-100.,-7.5,0.,-100.,7.5,200.000000000001,-100.,-7.5,                 197P    258
200.000000000001,0.,7.5,200.,0.,-7.5,200.,-0.0375,0.0375,            197P    259
-1.35676056553313D-14,3.14159265358979;                              197P    260
128,1,1,1,1,0,0,1,0,0,-20.0010000000003,-20.0010000000003,           199P    261
20.001,20.001,-5.00100000000014,-5.00100000000014,                   199P    262
5.00100000000007,5.00100000000007,1.,1.,1.,1.,-100.010000000001,     199P    263
7.5,-200.010000000003,-100.010000000001,7.5,200.01,                  199P    264
0.0100000000013534,7.5,-200.010000000003,0.0100000000013623,7.5,     199P    265
200.01,-20.0010000000003,20.001,-5.00100000000014,                   199P    266
5.00100000000007;                                                    199P    267
128,1,1,1,1,0,0,1,0,0,-2.501,-2.501,2.501,2.501,                     201P    268
-0.269669750877773,-0.269669750877773,0.190202730887702,             201P    269
0.190202730887702,1.,1.,1.,1.,-99.3046701999007,-5.,                 201P    270
25.0099999999997,-99.3046701999007,-5.,-25.0100000000004,            201P    271
-94.7059453822459,-5.,25.0099999999997,-94.705945382246,-5.,         201P    272
-25.0100000000004,-2.501,2.501,-0.269669750877773,                   201P    273
0.190202730887702;                                                   201P    274
128,1,2,1,2,0,0,0,0,0,-0.0252525252525253,-0.0252525252525253,       203P    275
0.0252525252525253,0.0252525252525253,1.4441957855928,               203P    276
1.4441957855928,1.4441957855928,1.697396867997,1.697396867997,       203P    277
1.697396867997,1.,1.,0.991996849394828,0.991996849394828,1.,1.,      203P    278
-97.7116896653902,5.,-25.0000000000002,-97.7116896653902,-5.,        203P    279
-25.0000000000002,-99.2946701999007,5.,-1.66268731026229D-12,        203P    280
-99.2946701999007,-5.,-1.66268731026229D-12,-97.7116896653909,       203P    281
5.,24.9999999999997,-97.7116896653909,-5.,24.9999999999997,          203P    282
-0.0252525252525253,0.0252525252525253,1.4441957855928,              203P    283
1.697396867997;                                                      203P    284
128,1,1,1,1,0,0,1,0,0,-0.001,-0.001,0.300574428314422,               205P    285
0.300574428314422,-0.501,-0.501,0.501,0.501,1.,1.,1.,1.,             205P    286
-94.705945382246,-5.01,-25.0000000000004,-97.7216896653902,          205P    287
-5.01,-25.0000000000002,-94.705945382246,5.01,-25.0000000000004,     205P    288
-97.7216896653902,5.01,-25.0000000000002,-0.001,                     205P    289
0.300574428314422,-0.501,0.501;                                      205P    290
128,1,2,1,2,0,0,0,0,0,-0.0255754475703325,-0.0255754475703325,       207P    291
0.0255754475703325,0.0255754475703325,-1.69902467516766,             207P    292
-1.69902467516766,-1.69902467516766,-1.44256797842214,               207P    293
-1.44256797842214,-1.44256797842214,1.,1.,0.991790004002576,         207P    294
0.991790004002576,1.,1.,-94.715945382246,-5.,-25.0000000000004,      207P    295
-94.715945382246,5.,-25.0000000000004,-96.290544988949,-5.,0.,       207P    296
-96.290544988949,5.,0.,-94.715945382246,-5.,24.9999999999995,        207P    297
-94.715945382246,5.,24.9999999999995,-0.0255754475703325,            207P    298
0.0255754475703325,-1.69902467516766,-1.44256797842214;              207P    299
128,1,1,1,1,0,0,1,0,0,-0.001,-0.001,0.300574428314486,               209P    300
0.300574428314486,-0.501,-0.501,0.501,0.501,1.,1.,1.,1.,             209P    301
-97.7216896653909,-5.01,24.9999999999997,-94.705945382246,-5.01,     209P    302
24.9999999999995,-97.7216896653909,5.01,24.9999999999997,            209P    303
-94.705945382246,5.01,24.9999999999995,-0.001,0.300574428314486,     209P    304
-0.501,0.501;                                                        209P    305
128,1,1,1,1,0,0,1,0,0,-2.501,-2.501,2.501,2.501,                     211P    306
-0.269669750877773,-0.269669750877773,0.190202730887702,             211P    307
0.190202730887702,1.,1.,1.,1.,-99.3046701999007,5.,                  211P    308
-25.0100000000004,-99.3046701999007,5.,25.0099999999997,             211P    309
-94.705945382246,5.,-25.0100000000004,-94.7059453822459,5.,          211P    310
25.0099999999997,-2.501,2.501,-0.269669750877773,                    211P    311
0.190202730887702;                                                   211P    312
128,10,3,3,3,1,0,1,1,0,-6.28318530717959,-6.28318530717959,          213P    313
-6.28318530717959,-6.28318530717959,-5.38558740615393,               213P    314
-4.9367884556411,-4.26359002987186,-3.59039160410262,                213P    315
-2.69279370307697,-1.79519580205131,-0.897597901025655,0.,0.,0.,     213P    316
0.,1.44354966112403,1.44354966112403,1.44354966112403,               213P    317
1.44354966112403,1.69804299246575,1.69804299246575,                  213P    318
1.69804299246575,1.69804299246575,1.,1.,1.,1.,1.,1.,1.,1.,1.,1.,     213P    319
1.,1.,1.,1.,1.,1.,1.,1.,1.,1.,1.,1.,1.,1.,1.,1.,1.,1.,1.,1.,1.,      213P    320
1.,1.,1.,1.,1.,1.,1.,1.,1.,1.,1.,1.,1.,-96.6491274548218,            213P    321
-2.79879450458017D-5,24.9999999999997,-96.6491312597552,             213P    322
-0.0186410822059004,24.9999999999997,-96.6626769726287,              213P    323
-0.046465803763915,24.9999999999996,-96.7017158458671,               213P    324
-0.0651202681084743,24.9999999999997,-96.7408840470985,              213P    325
-0.0607463031474961,24.9999999999996,-96.7761471865714,              213P    326
-0.0257851746826103,24.9999999999997,-96.7761782974632,              213P    327
0.0309834504581749,24.9999999999996,-96.7276106408301,               213P    328
0.0698097155719967,24.9999999999996,-96.6671693806529,               213P    329
0.0559378546152078,24.9999999999996,-96.6491236498884,               213P    330
0.0185851063158088,24.9999999999997,-96.6491274548218,               213P    331
-2.79879450458017D-5,24.9999999999997,-97.6987509660659,             213P    332
-2.79879450458017D-5,8.42604300775977,-97.6987547709993,             213P    333
-0.0186410822059004,8.42604312429297,-97.7123004838729,              213P    334
-0.046465803763915,8.425471507026,-97.7513393571112,                 213P    335
-0.0651202681084743,8.4238081584469,-97.7905075583426,               213P    336
-0.0607463031474961,8.42214596690895,-97.8257706978155,              213P    337
-0.0257851746826103,8.42064595177838,-97.8258018087074,              213P    338
0.0309834504581749,8.42064534509362,-97.7772341520743,               213P    339
0.0698097155719967,8.42270781015169,-97.7167928918971,               213P    340
0.0559378546152078,8.42528026873783,-97.6987471611325,               213P    341
0.0185851063158088,8.42604289122657,-97.6987509660659,               213P    342
-2.79879450458017D-5,8.42604300775977,-97.6989155416317,             213P    343
-2.79879450458017D-5,-8.41812696452994,-97.6989193014774,            213P    344
-0.0186410822059004,-8.41812756006142,-97.7124289287462,             213P    345
-0.046465803763915,-8.41926907423581,-97.7513658137698,              213P    346
-0.0651202681084743,-8.42254311407752,-97.7904308479403,             213P    347
-0.0607463031474961,-8.42583461429205,-97.8256015530731,             213P    348
-0.0257851746826103,-8.42879443714889,-97.8256324920146,             213P    349
0.0309834504581749,-8.42879775943046,-97.7771925852748,              213P    350
0.0698097155719967,-8.42471775109925,-97.7169095787613,              213P    351
0.0559378546152078,-8.41964600577175,-97.6989117817859,              213P    352
0.0185851063158088,-8.41812636899846,-97.6989155416317,              213P    353
-2.79879450458017D-5,-8.41812696452994,-96.6496273505434,            213P    354
-2.79879450458017D-5,-24.9921051890848,-96.6496311250879,            213P    355
-0.0186410822059004,-24.9921056690138,-96.6630686523575,             213P    356
-0.046465803763915,-24.9938142351169,-96.7017957336575,              213P    357
-0.0651202681084743,-24.9987383388645,-96.7406511100459,             213P    358
-0.0607463031474961,-25.0036787551846,-96.7756326132495,             213P    359
-0.0257851746826103,-25.0081266129946,-96.7756634756679,             213P    360
0.0309834504581749,-25.0081305371155,-96.7274837145491,              213P    361
0.0698097155719967,-25.0020045360249,-96.6675251808472,              213P    362
0.0559378546152078,-24.9943808775774,-96.6496235759989,              213P    363
0.0185851063158088,-24.9921047091558,-96.6496273505434,              213P    364
-2.79879450458017D-5,-24.9921051890848,-6.28318530717959,0.,         213P    365
1.44354966112403,1.69804299246575;                                   213P    366
128,1,1,1,1,0,0,1,0,0,-0.00724999999999962,-0.00724999999999962,     215P    367
0.00725000000000142,0.00725000000000142,-0.00725000000000001,        215P    368
-0.00725000000000001,0.00725000000000001,0.00725000000000001,1.,     215P    369
1.,1.,1.,-96.6397974796982,-0.0725000000000001,                      215P    370
-24.9908553323374,-96.7836394075682,-0.0725000000000001,             215P    371
-25.009144667663,-96.6397974796982,0.0725000000000001,               215P    372
-24.9908553323374,-96.7836394075682,0.0725000000000001,              215P    373
-25.009144667663,-0.00724999999999962,0.00725000000000142,           215P    374
-0.00725000000000001,0.00725000000000001;                            215P    375
128,1,1,1,1,0,0,1,0,0,-0.00724999999999964,-0.00724999999999964,     217P    376
0.00724999999999964,0.00724999999999964,-0.00725000000000001,        217P    377
-0.00725000000000001,0.00725000000000001,0.00725000000000001,1.,     217P    378
1.,1.,1.,-96.7842184436339,-0.0725000000000001,24.9999999999996,     217P    379
-96.6392184436339,-0.0725000000000001,24.9999999999996,              217P    380
-96.7842184436339,0.0725000000000001,24.9999999999996,               217P    381
-96.6392184436339,0.0725000000000001,24.9999999999996,               217P    382
-0.00724999999999964,0.00724999999999964,-0.00725000000000001,       217P    383
0.00725000000000001;                                                 217P    384
502,8,-1.22464679914735D-14,-7.5,200.,1.35393918299087D-12,-7.5,     219P    385
-200.,0.,-7.5,-198.,0.,-7.5,198.,1.35393918299087D-12,7.5,-200.,     219P    386
0.,7.5,-198.,0.,7.5,198.,-1.22464679914735D-14,7.5,200.;             219P    387
502,8,-94.715945382246,-5.,24.9999999999995,-97.7116896653909,       221P    388
-5.,24.9999999999997,-97.7116896653902,-5.,-25.0000000000002,        221P    389
-94.7159453822459,-5.,-25.0000000000004,-97.7116896653909,5.,        221P    390
24.9999999999997,-97.7116896653902,5.,-25.0000000000002,             221P    391
-94.7159453822459,5.,-25.0000000000004,-94.715945382246,5.,          221P    392
24.9999999999995;                                                    221P    393
502,2,-96.6492184436339,0.,24.9999999999996,-96.6497176126548,       223P    394
0.,-24.9921166658082;                                                223P    395
504,12,135,219,1,219,2,137,219,2,219,3,139,219,3,219,4,141,219,      225P    396
4,219,1,143,219,5,219,2,145,219,6,219,5,147,219,3,219,6,149,219,     225P    397
7,219,6,151,219,4,219,7,153,219,8,219,7,155,219,1,219,8,157,219,     225P    398
5,219,8;                                                             225P    399
504,12,159,221,1,221,2,161,221,2,221,3,163,221,3,221,4,165,221,      227P    400
4,221,1,167,221,5,221,2,169,221,6,221,5,171,221,3,221,6,173,221,     227P    401
7,221,6,175,221,4,221,7,177,221,8,221,7,179,221,1,221,8,181,221,     227P    402
5,221,8;                                                             227P    403
504,3,183,223,1,223,1,185,223,1,223,2,187,223,2,223,2;               229P    404
406,1,8HSólido1;                                                    231P    405
406,1,8HSólido4;                                                    233P    406
406,1,8HSólido5;                                                    235P    407
314,74.9019607843137,74.9019607843137,74.9019607843137,;             237P    408
314,91.3725490196078,91.3725490196078,0.,;                           239P    409
314,100.,100.,100.,;                                                 241P    410
S      1G      3D    242P    410                                        T      1
